<mxfile host="app.diagrams.net" modified="2022-01-19T02:49:34.976Z" agent="5.0 (Windows NT 10.0; WOW64) AppleWebKit/537.36 (KHTML, like Gecko) Chrome/70.0.3538.67 Safari/537.36" etag="FdKmL38QBkICNM4VeUvt" version="16.2.7" type="github">
  <diagram id="qtPlICTKakMZVoN-peX3" name="Page-1">
    <mxGraphModel dx="981" dy="548" grid="1" gridSize="10" guides="1" tooltips="1" connect="1" arrows="1" fold="1" page="1" pageScale="1" pageWidth="827" pageHeight="1169" math="0" shadow="0">
      <root>
        <mxCell id="0" />
        <mxCell id="1" parent="0" />
        <mxCell id="mSWC4GAwI5XCCafl90Lr-1" value="&lt;div style=&quot;text-align: left&quot;&gt;&lt;span&gt;struct resource iomem_resouce&amp;nbsp;&lt;/span&gt;&lt;span&gt;{&lt;/span&gt;&lt;/div&gt;&lt;div style=&quot;text-align: left&quot;&gt;&lt;span style=&quot;white-space: pre&quot;&gt;	&lt;/span&gt;.name = &quot;PCI mem&quot;,&lt;br&gt;&lt;/div&gt;&lt;div style=&quot;text-align: left&quot;&gt;&lt;span style=&quot;white-space: pre&quot;&gt;	&lt;/span&gt;.start = 0,&lt;br&gt;&lt;/div&gt;&lt;div style=&quot;text-align: left&quot;&gt;&lt;span style=&quot;white-space: pre&quot;&gt;	&lt;/span&gt;.end = -1,&amp;nbsp;// 0XFFFF_FFFF_...&lt;br&gt;&lt;/div&gt;&lt;div style=&quot;text-align: left&quot;&gt;&lt;span style=&quot;white-space: pre&quot;&gt;	&lt;/span&gt;.flags = IORESOURCE_MEM,&lt;br&gt;&lt;/div&gt;&lt;div style=&quot;text-align: left&quot;&gt;&lt;span style=&quot;white-space: pre&quot;&gt;	&lt;/span&gt;.parent = NULL,&lt;/div&gt;&lt;div style=&quot;text-align: left&quot;&gt;&lt;span style=&quot;white-space: pre&quot;&gt;	&lt;/span&gt;.sbling = NULL,&lt;/div&gt;&lt;div style=&quot;text-align: left&quot;&gt;&lt;span style=&quot;white-space: pre&quot;&gt;	&lt;/span&gt;.child = NULL;&lt;br&gt;&lt;/div&gt;&lt;div style=&quot;text-align: left&quot;&gt;&lt;span&gt;}&lt;/span&gt;&lt;/div&gt;" style="whiteSpace=wrap;html=1;fillColor=#CCFFCC;" vertex="1" parent="1">
          <mxGeometry x="280" y="210" width="200" height="130" as="geometry" />
        </mxCell>
        <mxCell id="mSWC4GAwI5XCCafl90Lr-2" value="&lt;font style=&quot;font-size: 16px&quot; color=&quot;#ff0000&quot;&gt;root&lt;/font&gt;" style="text;html=1;resizable=0;autosize=1;align=center;verticalAlign=middle;points=[];fillColor=none;strokeColor=none;rounded=0;" vertex="1" parent="1">
          <mxGeometry x="360" y="180" width="40" height="20" as="geometry" />
        </mxCell>
        <mxCell id="mSWC4GAwI5XCCafl90Lr-4" value="&lt;font style=&quot;font-size: 16px&quot; color=&quot;#ff0000&quot;&gt;A&lt;/font&gt;" style="text;html=1;resizable=0;autosize=1;align=center;verticalAlign=middle;points=[];fillColor=none;strokeColor=none;rounded=0;" vertex="1" parent="1">
          <mxGeometry x="105" y="390" width="30" height="20" as="geometry" />
        </mxCell>
        <mxCell id="mSWC4GAwI5XCCafl90Lr-6" value="&lt;font style=&quot;font-size: 16px&quot; color=&quot;#ff0000&quot;&gt;B&lt;/font&gt;" style="text;html=1;resizable=0;autosize=1;align=center;verticalAlign=middle;points=[];fillColor=none;strokeColor=none;rounded=0;" vertex="1" parent="1">
          <mxGeometry x="414" y="390" width="30" height="20" as="geometry" />
        </mxCell>
        <mxCell id="mSWC4GAwI5XCCafl90Lr-8" value="&lt;font style=&quot;font-size: 16px&quot; color=&quot;#ff0000&quot;&gt;C&lt;/font&gt;" style="text;html=1;resizable=0;autosize=1;align=center;verticalAlign=middle;points=[];fillColor=none;strokeColor=none;rounded=0;" vertex="1" parent="1">
          <mxGeometry x="670" y="390" width="30" height="20" as="geometry" />
        </mxCell>
        <mxCell id="mSWC4GAwI5XCCafl90Lr-20" style="edgeStyle=orthogonalEdgeStyle;rounded=0;orthogonalLoop=1;jettySize=auto;html=1;exitX=0;exitY=0.5;exitDx=0;exitDy=0;entryX=0.274;entryY=1.013;entryDx=0;entryDy=0;entryPerimeter=0;fontSize=16;fontColor=#FF0000;strokeColor=#FF0000;dashed=1;" edge="1" parent="1" source="mSWC4GAwI5XCCafl90Lr-9" target="mSWC4GAwI5XCCafl90Lr-1">
          <mxGeometry relative="1" as="geometry" />
        </mxCell>
        <mxCell id="mSWC4GAwI5XCCafl90Lr-9" value="&lt;div&gt;&lt;br&gt;&lt;/div&gt;&lt;div&gt;.start = 0xb000 0000,&lt;br&gt;&lt;/div&gt;&lt;div&gt;.end = 0xbfff ffff,&amp;nbsp;&lt;/div&gt;&lt;div&gt;.parent = &amp;amp;root,&lt;/div&gt;&lt;div&gt;.sbling = &amp;amp;C,&lt;/div&gt;&lt;div&gt;.child = NULL;&lt;br&gt;&lt;/div&gt;&lt;div&gt;&lt;br&gt;&lt;/div&gt;" style="whiteSpace=wrap;html=1;fillColor=#CCFFCC;align=left;" vertex="1" parent="1">
          <mxGeometry x="370" y="435" width="130" height="90" as="geometry" />
        </mxCell>
        <mxCell id="mSWC4GAwI5XCCafl90Lr-11" value="&lt;div&gt;&lt;br&gt;&lt;/div&gt;&lt;div&gt;.start = 0xa000 0000,&lt;br&gt;&lt;/div&gt;&lt;div&gt;.end = 0xafff ffff,&amp;nbsp;&lt;/div&gt;&lt;div&gt;.parent = &amp;amp;root,&lt;/div&gt;&lt;div&gt;.sbling = &amp;amp;B,&lt;/div&gt;&lt;div&gt;.child = NULL;&lt;br&gt;&lt;/div&gt;&lt;div&gt;&lt;br&gt;&lt;/div&gt;" style="whiteSpace=wrap;html=1;fillColor=#CCFFCC;align=left;" vertex="1" parent="1">
          <mxGeometry x="60" y="435" width="130" height="90" as="geometry" />
        </mxCell>
        <mxCell id="mSWC4GAwI5XCCafl90Lr-12" value="&lt;div&gt;&lt;br&gt;&lt;/div&gt;&lt;div&gt;.start = 0xc000 0000,&lt;br&gt;&lt;/div&gt;&lt;div&gt;.end = 0xcfff ffff,&amp;nbsp;&lt;/div&gt;&lt;div&gt;.parent = &amp;amp;root,&lt;/div&gt;&lt;div&gt;.sbling = NULL,&lt;/div&gt;&lt;div&gt;.child = NULL;&lt;br&gt;&lt;/div&gt;&lt;div&gt;&lt;br&gt;&lt;/div&gt;" style="whiteSpace=wrap;html=1;fillColor=#CCFFCC;align=left;" vertex="1" parent="1">
          <mxGeometry x="620" y="435" width="130" height="90" as="geometry" />
        </mxCell>
        <mxCell id="mSWC4GAwI5XCCafl90Lr-13" style="rounded=0;orthogonalLoop=1;jettySize=auto;html=1;entryX=0;entryY=1;entryDx=0;entryDy=0;fontSize=16;fontColor=#FF0000;strokeColor=#FF0000;dashed=1;" edge="1" parent="1" target="mSWC4GAwI5XCCafl90Lr-1">
          <mxGeometry relative="1" as="geometry">
            <mxPoint x="150" y="480" as="sourcePoint" />
          </mxGeometry>
        </mxCell>
        <mxCell id="mSWC4GAwI5XCCafl90Lr-18" style="rounded=0;orthogonalLoop=1;jettySize=auto;html=1;entryX=1;entryY=1;entryDx=0;entryDy=0;fontSize=16;fontColor=#FF0000;exitX=0;exitY=0.5;exitDx=0;exitDy=0;strokeColor=#FF0000;dashed=1;" edge="1" parent="1" source="mSWC4GAwI5XCCafl90Lr-12" target="mSWC4GAwI5XCCafl90Lr-1">
          <mxGeometry relative="1" as="geometry">
            <mxPoint x="570" y="460" as="sourcePoint" />
            <mxPoint x="700" y="320" as="targetPoint" />
          </mxGeometry>
        </mxCell>
        <mxCell id="mSWC4GAwI5XCCafl90Lr-22" style="rounded=0;orthogonalLoop=1;jettySize=auto;html=1;fontSize=16;fontColor=#FF0000;entryX=0;entryY=1;entryDx=0;entryDy=0;strokeColor=#FF0000;dashed=1;" edge="1" parent="1" target="mSWC4GAwI5XCCafl90Lr-9">
          <mxGeometry relative="1" as="geometry">
            <mxPoint x="160" y="498" as="sourcePoint" />
            <mxPoint x="320" y="518" as="targetPoint" />
          </mxGeometry>
        </mxCell>
        <mxCell id="mSWC4GAwI5XCCafl90Lr-23" style="rounded=0;orthogonalLoop=1;jettySize=auto;html=1;fontSize=16;fontColor=#FF0000;entryX=0;entryY=1;entryDx=0;entryDy=0;strokeColor=#FF0000;dashed=1;" edge="1" parent="1">
          <mxGeometry relative="1" as="geometry">
            <mxPoint x="450" y="498" as="sourcePoint" />
            <mxPoint x="620" y="525" as="targetPoint" />
          </mxGeometry>
        </mxCell>
      </root>
    </mxGraphModel>
  </diagram>
</mxfile>
